<?xml version="1.0" encoding="utf-8"?>
<!-- Generator: Adobe Illustrator 25.2.1, SVG Export Plug-In . SVG Version: 6.00 Build 0)  -->
<svg version="1.1" id="Capa_1" xmlns="http://www.w3.org/2000/svg" xmlns:xlink="http://www.w3.org/1999/xlink" x="0px" y="0px"
	 viewBox="0 0 512 512" style="enable-background:new 0 0 512 512;" xml:space="preserve">
<style type="text/css">
	.st0{fill:#0071BC;}
</style>
<g>
	<path class="st0" d="M348.1,17.9c-23.8-23.8-62.6-23.8-86.4,0l-5.7,5.7l-5.7-5.7C226.5-6,187.7-6,163.9,17.9
		c-23.8,23.8-23.8,62.6,0,86.4l81.5,81.5c5.9,5.8,15.4,5.8,21.2,0l81.5-81.5C371.9,80.4,371.9,41.7,348.1,17.9L348.1,17.9z"/>
	<path class="st0" d="M56.1,431c-8.3,0-15,6.7-15,15c0,19.5,0,51,0,51c0,8.3,6.7,15,15,15H224c8.3,0,15-6.7,15-15
		c0-14.9,0-39.3,0-66L56.1,431z"/>
	<path class="st0" d="M455.9,431H273v66c0,8.3,6.7,15,15,15h167.9c8.3,0,15-6.7,15-15c0,0,0-31.5,0-51
		C470.9,437.7,464.2,431,455.9,431L455.9,431z"/>
	<path class="st0" d="M454.9,76.6v155.7c0,12.5-4.9,24.3-13.7,33.2l-49.7,49.7c-2.9,2.9-6.8,4.4-10.6,4.4c-13.2,0-20-16.1-10.7-25.5
		l43-43.7c13.5-18.5,2.9-45-18.8-49.3c-10.5-2.2-21.6,1-28.3,7.9c-17.5,17.5-26.9,28.7-51,38c-25.3,9.7-41.8,34.3-42.1,60.5V401
		h159.2c3.4-16,12.1-36.2,33.2-53.4c45.9-37.5,46.5-88.2,46.5-91.6V76.6c0-15.7-12.8-28.5-28.5-28.5
		C467.7,48.1,454.9,60.8,454.9,76.6L454.9,76.6z"/>
	<path class="st0" d="M57.1,76.6v155.7c0,12.5,4.9,24.3,13.7,33.2l49.7,49.7c2.9,2.9,6.8,4.4,10.6,4.4c13.2,0,20-16.1,10.7-25.5
		l-43-43.7c-13.5-18.5-2.9-45,18.8-49.3c10.5-2.2,21.6,1,28.3,7.9c17.5,17.5,26.9,28.7,51,38c25.3,9.7,41.8,34.3,42.1,60.5V401H79.8
		c-3.4-16-12.1-36.2-33.2-53.4C0.7,310.2,0.1,259.4,0.1,256V76.6c0-15.7,12.8-28.5,28.5-28.5C44.3,48.1,57.1,60.8,57.1,76.6
		L57.1,76.6z"/>
</g>
</svg>
