<?xml version="1.0" encoding="utf-8"?>
<!-- Generator: Adobe Illustrator 25.2.1, SVG Export Plug-In . SVG Version: 6.00 Build 0)  -->
<svg version="1.1" id="Capa_1" xmlns="http://www.w3.org/2000/svg" xmlns:xlink="http://www.w3.org/1999/xlink" x="0px" y="0px"
	 viewBox="0 0 512 512" style="enable-background:new 0 0 512 512;" xml:space="preserve">
<style type="text/css">
	.st0{fill:#0071BC;}
</style>
<g>
	<path class="st0" d="M0,292v27.6c0,34.1,27.6,61.7,61.7,61.7h84.9c34.1,0,61.7-27.6,61.7-61.7V292L0,292z"/>
	<path class="st0" d="M512,292v27.6c0,34.1-27.6,61.7-61.7,61.7h-84.9c-34.1,0-61.7-27.6-61.7-61.7V292L512,292z"/>
	<path class="st0" d="M271,114.3h112.3L308.9,262h33.6l65.4-129.7L473.2,262h33.6l-74.4-147.7h42.3v-30H311l2.8-14.1
		c3.4-17.3-1.1-35.1-12.3-48.8C290.2,7.8,273.7,0,256,0s-34.2,7.8-45.5,21.5c-11.2,13.6-15.7,31.4-12.3,48.8l2.8,14.1H37.3v30h42.3
		L5.2,262h33.6l65.4-129.7L169.5,262h33.6l-74.4-147.7H241V427h-73.7c-35.8,0-65,29.2-65,65v20H399v-20c0-35.8-29.2-65-65-65h-63
		V114.3z"/>
</g>
</svg>
