<svg width="145" height="99" viewBox="0 0 145 99" fill="none" xmlns="http://www.w3.org/2000/svg">
<path d="M105.701 19.8618C111.926 20.2718 117.163 20.9969 119.562 21.7703C121.539 22.4161 123.106 23.789 124.611 26.1712C125.444 27.4802 127.089 30.7441 127.089 31.0593C127.151 31.3252 127.252 31.5806 127.387 31.8172C127.545 32.1324 128.062 33.5575 128.541 35.0019C129.356 37.4305 129.575 38.1575 130.594 41.6264C130.798 42.3669 130.979 42.8407 130.979 42.6995C130.994 42.4617 131.057 42.4462 131.402 42.5719C131.857 42.7459 132.578 42.7769 132.94 42.6357C133.143 42.5564 133.174 42.3051 133.08 40.9322C132.955 38.8188 133.143 38.2348 134.041 37.8249C135.295 37.2584 138.211 37.5736 139.561 38.4243C140.464 39.0269 141.124 39.9331 141.424 40.9805C141.753 42.131 141.737 42.8252 141.345 43.4555C140.953 44.0859 140.138 44.3701 137.99 44.6157C135.779 44.8671 134.462 44.8207 133.834 44.4726C133.257 44.1729 132.815 44.2212 132.438 44.666C132.282 44.8709 132.438 45.2963 133.489 47.3324C135.22 50.6756 135.935 53.5605 135.841 56.7625C135.81 57.6926 135.858 57.8821 136.375 58.7657C136.686 59.2911 136.943 59.8462 137.144 60.4228C137.365 61.2253 137.396 68.8746 137.177 70.9571C137.098 71.7305 137.098 76.6031 137.177 82.3285C137.333 93.7367 137.348 93.6516 136.189 94.8041L135.593 95.4035H132.046C128.5 95.4035 128.485 95.4035 128.108 95.0168C127.545 94.4483 127.247 93.1876 127.247 91.4203V89.8734H124.596C121.993 89.8734 121.931 89.8734 121.475 89.4867C120.378 88.5721 122.025 88.6185 95.7419 88.6185H71.5926L70.6063 89.2972L69.6181 89.9604L66.9822 89.9121L64.3637 89.8657V91.6948C64.3637 93.6652 64.1926 94.3129 63.5178 95.0071L63.1333 95.3938H56.3043L55.7083 94.982C55.2854 94.6842 55.0335 94.3207 54.7836 93.6729C54.4529 92.7912 54.4529 92.7583 54.5625 83.013C54.6259 77.0343 54.7201 73.202 54.8143 73.1401C54.9085 73.0782 54.9239 72.7766 54.8778 72.4304C54.2491 67.7144 54.1241 66.2004 54.1088 63.4566L54.0934 60.4596L54.6567 59.0403C55.1431 57.8105 55.2335 57.3832 55.3315 55.8073C55.4738 53.3149 55.8179 50.9734 56.2736 49.4826C56.6331 48.2992 58.248 45.0353 58.5614 44.8419C58.6153 44.8069 58.6572 44.7563 58.6817 44.6967C58.7062 44.6371 58.7121 44.5714 58.6985 44.5084C58.6849 44.4454 58.6526 44.388 58.6057 44.344C58.5589 44.2999 58.4999 44.2713 58.4364 44.2619C58.1505 44.2644 57.8699 44.3402 57.6213 44.4823C56.9945 44.8149 55.6449 44.8458 53.4666 44.6099C51.2884 44.374 50.502 44.0724 50.1098 43.4497C49.2793 42.1252 50.2194 39.4762 51.8824 38.4224C53.2148 37.5716 56.1467 37.2622 57.4021 37.823C58.3269 38.2503 58.4672 38.7221 58.3634 40.8355C58.2692 42.2877 58.3019 42.5545 58.5057 42.6338C58.8806 42.7749 59.5708 42.744 60.0899 42.5545C60.5436 42.3979 60.6224 42.2238 62.222 37.3976C66.0786 25.854 66.4247 25.0013 68.2127 23.236C68.9336 22.5263 69.4508 22.1628 70.2506 21.8476C71.6925 21.2676 75.057 20.759 80.9131 20.2389C85.2428 19.8522 86.3386 19.8135 94.6345 19.7806C99.5851 19.7516 104.57 19.798 105.701 19.8618ZM85.064 22.7003C77.8505 23.0155 73.617 23.3481 71.7194 23.7252C70.589 23.963 69.3047 24.5469 68.8644 25.0187C68.2531 25.7129 66.4651 30.9336 63.9561 39.4182C63.737 40.1588 63.3928 41.2957 63.1871 41.9319C62.9814 42.568 62.8718 43.1616 62.9352 43.2254C63.1544 43.4768 66.244 43.8249 69.2239 43.9505C73.2844 44.1091 126.068 44.0936 127.51 43.9196C128.437 43.8094 128.664 43.7262 128.664 43.5097C128.664 43.2564 128.129 41.2222 127.393 38.6989C127.009 37.4053 126.657 36.3012 125.34 32.318C123.081 25.4577 122.94 25.1889 121.529 24.4793C120.431 23.9262 119.882 23.816 116.196 23.4216C113.17 23.0909 110.128 22.886 102.24 22.4915C99.114 22.3388 91.2584 22.4296 85.064 22.7003ZM123.707 51.1358C119.726 52.3675 118.768 53.5644 118.424 57.71C118.345 58.7967 118.297 60.2005 118.33 60.8328C118.376 61.8576 118.424 62.0142 118.878 62.4724C119.332 62.9307 119.455 62.9771 120.76 63.039C124.132 63.1975 128.429 62.5188 129.84 61.6197C131.079 60.8153 131.69 58.8296 131.596 55.9118C131.502 52.8045 131 51.7642 129.229 50.9753C128.491 50.6446 128.241 50.6118 126.687 50.6756C125.681 50.6886 124.681 50.8435 123.717 51.1358H123.707ZM62.3008 51.0256C60.732 51.6733 60.261 52.4932 59.9476 55.0474C59.779 56.6343 59.9341 58.239 60.4032 59.7635C60.7012 60.7303 61.5472 61.6971 62.3623 62.0509C63.5543 62.5382 66.0959 62.9172 68.8548 63.0177C71.4118 63.097 71.6925 63.0815 72.1943 62.8128C73.1671 62.2771 73.3248 61.7241 73.2152 59.4541C73.0575 56.3468 72.8845 55.2273 72.352 54.1386C71.5829 52.5782 70.5025 51.8996 67.4917 51.0797C65.2731 50.4668 63.6274 50.4668 62.3104 51.0256H62.3008ZM75.801 56.5305C74.9551 56.9714 74.8301 57.7293 75.2531 59.748C75.5819 61.3239 76.0837 62.2075 77.3237 63.4064C78.6253 64.669 79.204 65.0944 80.4286 65.7093C82.3089 66.6548 83.7528 66.8288 92.7215 67.1749C100.546 67.4921 107.775 66.8926 110.986 65.6783C114.685 64.2746 116.865 61.4979 116.88 58.1373C116.88 56.954 116.865 56.9076 116.442 56.7181C115.877 56.4648 109.338 56.37 90.8816 56.3313C78.1158 56.2946 76.2029 56.3255 75.8107 56.5305H75.801ZM124.942 64.9687C124.142 65.0306 123.388 65.1737 123.248 65.2839C122.95 65.5353 122.95 66.0728 123.263 66.5137C123.467 66.8288 123.648 66.8598 124.705 66.8598C126.666 66.8443 128.768 66.5929 129.41 66.2797C129.881 66.0419 129.987 65.9162 129.987 65.5217C129.99 64.6361 129.519 64.582 124.942 64.9687ZM61.7606 65.0151C61.401 65.3458 61.376 65.425 61.526 65.7402C61.7156 65.9962 61.9698 66.1965 62.2623 66.3203C62.891 66.5891 65.1962 66.8559 66.9053 66.8559C68.0185 66.8559 68.1435 66.825 68.378 66.4788C68.7087 65.9568 68.5991 65.4057 68.1281 65.1698C67.8147 65.0267 65.4 64.8063 62.6872 64.6651C62.3466 64.6663 62.0178 64.7905 61.7606 65.0151ZM67.5782 75.7234C67.1229 75.8944 66.7445 76.2254 66.5131 76.6553C65.996 77.5216 65.6038 79.2251 65.8076 79.809C66.0729 80.5825 67.8147 81.0233 73.146 81.6692C76.3297 82.0559 85.2197 82.4581 92.4331 82.5373C103.755 82.6476 116.096 82.1506 121.506 81.354C123.844 81.0079 124.848 80.6753 125.553 80.0005C126.211 79.3682 126.243 78.8635 125.678 77.713C125.161 76.6882 124.611 76.0888 123.984 75.8355C123.781 75.7582 114.152 75.6789 101.638 75.6789C89.5493 75.6634 77.9293 75.5996 75.8107 75.5358C70.8408 75.3772 68.378 75.4391 67.5782 75.7234Z" fill="#045286"/>
<path d="M81.4073 2.39379C85.8138 2.9874 86.1214 4.25004 82.6377 7.64929C79.6404 10.5884 76.1568 12.8294 69.9815 15.7704C65.1136 18.0636 64.4214 18.4774 62.1682 20.4342L59.6823 22.5728L60.0668 23.2689C60.5032 24.1448 60.5282 25.4074 60.0918 25.7419C59.5804 26.1538 57.531 26.8499 55.7372 27.2115C54.328 27.5208 53.7897 27.778 52.6111 28.8086C51.4845 29.787 51.2019 30.1737 51.3307 30.5856C51.7152 31.8753 51.7671 32.931 51.4326 33.2133C50.9212 33.6001 47.1549 34.8376 46.4339 34.8376C45.8437 34.8376 44.769 35.6883 40.0279 39.9132C38.4899 41.2784 37.6978 41.7424 34.8274 42.9548C32.9837 43.7282 31.559 44.2174 31.6513 44.0357C31.7436 43.8539 34.3679 40.2478 37.4921 35.9977C40.6162 31.7477 43.2309 28.1125 43.3597 27.9327C43.4886 27.7529 43.104 27.8031 42.3081 28.1125C34.6179 31.2063 30.6266 32.7763 29.55 33.1109C26.5527 34.0641 20.7062 34.94 15.2807 35.2243C11.6676 35.4292 9.745 35.2488 9.51301 34.6829C9.25538 34.0138 9.66681 33.1631 10.4339 32.699L11.2029 32.2349L6.75413 27.954C4.29325 25.5834 2.34761 23.5744 2.4745 23.5067C2.83402 23.1973 7.88075 21.1864 8.29026 21.1864C8.52096 21.1864 12.0816 22.1667 16.2074 23.3771C20.3332 24.5876 23.8976 25.5679 24.1226 25.5679C24.5071 25.5679 35.2734 21.2135 38.5207 19.7188L39.5454 19.2547L37.369 19.1252C35.5234 18.9976 34.8582 19.0749 33.0644 19.6163C31.2707 20.1577 30.8862 20.208 30.6824 19.8735C30.5558 19.6746 30.5097 19.4345 30.5535 19.2025C30.7323 18.7385 30.0921 18.6108 27.6851 18.5857C26.4546 18.5586 24.3533 18.4813 23.0209 18.3788L20.587 18.2241L23.9188 16.8223L27.2487 15.432L41.0315 13.5352L54.8413 11.6286L59.7342 9.15363C62.4489 7.77884 66.8285 5.6925 69.5201 4.48013L74.388 2.2913L76.9508 2.21396C78.4385 2.18812 79.9264 2.24816 81.4073 2.39379Z" fill="#045286"/>
</svg>
