<svg width="12" height="13" viewBox="0 0 12 13" fill="none" xmlns="http://www.w3.org/2000/svg">
<path d="M3.71326 3.14888L4.17263 3.00202C4.60383 2.86455 5.06363 3.08698 5.24849 3.52159L5.61522 4.3874C5.77489 4.76437 5.68651 5.20795 5.39578 5.48374L4.58718 6.25136C4.6367 6.71073 4.79125 7.16285 5.04997 7.60771C5.29578 8.03814 5.62547 8.41487 6.01952 8.71558L6.99078 8.39112C7.35921 8.26859 7.7601 8.4099 7.98551 8.74162L8.51192 9.51436C8.77448 9.9003 8.72751 10.4323 8.40177 10.7593L8.05254 11.1098C7.70502 11.4586 7.20851 11.5854 6.74956 11.4419C5.66559 11.1038 4.66915 10.1001 3.75979 8.43082C2.84916 6.75897 2.52768 5.33987 2.79579 4.17521C2.9085 3.6851 3.2573 3.29446 3.71326 3.14888Z" fill="white"/>
</svg>
