<svg width="139" height="101" viewBox="0 0 139 101" fill="none" xmlns="http://www.w3.org/2000/svg">
<path d="M17.3009 5.10919C16.549 5.32635 15.8205 5.61709 15.1259 5.97716C14.078 6.54923 12.2589 8.00899 12.2589 8.26544C12.2589 8.36407 12.6346 8.48243 13.0894 8.56134C13.7023 8.65997 14.1175 8.91642 14.7107 9.52794C15.0811 9.88493 15.4186 10.2745 15.7191 10.6918C15.897 10.9877 16.0552 10.9877 17.3997 10.7313C21.9869 9.90274 28.3932 11.0666 28.6305 12.7828L28.6898 13.2168L27.7012 12.7039C25.6646 11.6979 21.5124 11.2244 18.25 11.619C15.9366 11.8951 15.897 11.9149 15.7586 12.7434C15.6004 13.71 14.9677 14.499 13.7418 15.2289C12.9509 15.7024 12.6544 15.9983 12.5753 16.4322C12.081 18.8783 13.1289 21.9951 15.0666 23.7902C18.5861 27.0846 24.3003 26.69 27.3057 22.9815C28.7689 21.1666 29.4609 18.109 28.8875 15.8996C28.67 14.9725 28.7491 14.4004 29.1445 14.4004C29.4649 14.3555 29.7819 14.2896 30.0936 14.2031C31.0427 13.927 31.3591 13.1182 31.0427 11.757C30.3507 8.65997 27.5034 5.93771 23.984 5.03028C22.4219 4.61603 18.8431 4.65548 17.3009 5.10919Z" fill="#045286"/>
<path d="M11.4285 9.15317C9.58964 9.80414 5.65494 12.5461 3.69747 14.4991C0.118664 18.0696 -0.790866 21.8965 1.02819 25.6248C2.29363 28.2288 6.05038 31.2272 10.0444 32.8053L10.8748 33.1407V92.7149L11.2901 93.6026C12.1205 95.3582 13.5639 96.1473 15.7191 96.0289C17.3997 95.95 18.4477 95.378 19.3177 94.0563L19.8713 93.2278L19.9306 76.0065L19.9702 58.7852H21.5519V75.5133C21.5519 85.7909 21.631 92.4782 21.7497 92.8924C22.2835 94.8059 24.0235 96.0684 26.0798 96.0684C28.0571 96.0684 29.4016 95.2793 30.3111 93.6026L30.7461 92.8135L30.845 65.1963L30.9438 37.5791L31.4777 39.3545C32.7234 43.3788 33.3165 50.0858 33.0397 56.8125C32.9606 58.7852 32.9804 60.5606 33.0793 60.9551C33.2635 61.4518 33.5536 61.9028 33.9295 62.2768C34.2588 62.584 34.6543 62.8118 35.0856 62.9426C35.517 63.0734 35.9726 63.1038 36.4176 63.0314C36.8625 62.959 37.2849 62.7857 37.6522 62.525C38.0196 62.2642 38.322 61.9229 38.5364 61.5272C38.9714 60.7579 39.011 60.4817 39.0901 55.6684C39.3076 44.9766 38.1014 37.658 35.3729 33.0026C34.404 31.3653 32.3674 29.3729 30.9438 28.7022C29.8761 28.1696 29.5202 28.1104 27.2464 28.0512C24.9726 27.992 24.7155 28.0118 24.7155 28.3077C24.7155 28.4852 24.8539 29.7082 25.0319 31.0299C25.3878 33.693 25.3285 37.6186 24.9133 38.96C24.6958 39.6702 23.3512 41.2286 22.9756 41.2286C22.8767 41.2286 22.6592 39.5123 22.4615 37.4213C21.9869 32.3319 22.1451 32.7461 20.7413 32.7461C20.1086 32.7461 19.5747 32.825 19.5747 32.9039C19.5747 33.1801 18.764 40.9327 18.7245 41.0707C18.6256 41.3864 17.3602 40.3409 17.0043 39.6504C16.075 37.8356 16.0354 32.7659 16.9252 28.5444L17.0438 28.0118H15.6795C14.6118 28.0118 13.9989 27.8737 12.6939 27.3213C10.4992 26.4336 8.38353 25.0922 7.2565 23.8889C5.85266 22.4094 5.81311 21.6993 6.97969 20.0028C7.8299 18.76 9.88623 17.0241 12.1601 15.6432C12.9698 15.1685 13.743 14.6344 14.4734 14.0454C15.897 12.7434 15.5609 10.2579 13.8803 9.38988C13.0103 8.9559 12.1996 8.87699 11.4285 9.15317Z" fill="#045286"/>
<path d="M19.3967 29.649C19.2583 30.4381 19.2188 31.2468 19.2979 31.4244C19.4363 31.8189 20.5238 32.0556 21.4333 31.8781C22.2637 31.7203 22.4417 31.306 22.244 30.0238C21.9869 28.1498 22.0265 28.2089 20.761 28.2089H19.634L19.3967 29.649Z" fill="#045286"/>
<path d="M80.9186 19.0795C74.5163 19.4977 69.1303 20.2375 66.6627 21.0265C64.6301 21.6854 63.0186 23.086 61.4704 25.5163C60.6143 26.8518 58.9218 30.1816 58.9218 30.5032C58.8581 30.7745 58.7549 31.0351 58.6153 31.2765C58.4532 31.598 57.9213 33.0519 57.429 34.5254C56.5906 37.0031 56.3652 37.7448 55.3173 41.2838C55.1077 42.0393 54.9218 42.5226 54.9218 42.3786C54.906 42.1359 54.8408 42.1202 54.4868 42.2484C54.0182 42.4259 53.2768 42.4575 52.905 42.3135C52.6955 42.2326 52.6638 41.9762 52.7607 40.5756C52.8892 38.4195 52.6955 37.8237 51.7721 37.4055C50.4809 36.8275 47.4815 37.1491 46.0934 38.017C45.1699 38.6342 44.4959 39.5583 44.1913 40.6249C43.8532 41.7986 43.8691 42.5068 44.2724 43.1499C44.6758 43.793 45.5141 44.083 47.7227 44.3335C49.9965 44.5899 51.3509 44.5426 51.9975 44.1875C52.5907 43.8817 53.0454 43.9311 53.433 44.3848C53.5931 44.5939 53.433 45.0279 52.3514 47.1051C50.5719 50.5158 49.8364 53.459 49.9332 56.7257C49.9649 57.6746 49.9174 57.8679 49.3836 58.7694C49.0644 59.3053 48.7994 59.8716 48.5927 60.4599C48.3653 61.2786 48.3337 69.0824 48.5591 71.207C48.6401 71.996 48.6401 76.9671 48.5591 82.8082C48.3989 94.4468 48.3831 94.36 49.5754 95.5357L50.1883 96.1473H53.8343C57.4784 96.1473 57.4942 96.1473 57.8818 95.7527C58.4611 95.1728 58.7676 93.8866 58.7676 92.0836V90.5055H61.4922C64.1694 90.5055 64.2327 90.5055 64.7013 90.1109C65.8303 89.1779 64.1377 89.2252 91.1666 89.2252H115.997L117.013 89.9176L118.027 90.5942L120.738 90.5449L123.431 90.4976V92.3637C123.431 94.3738 123.609 95.0347 124.301 95.7429L124.697 96.1374H131.712L132.325 95.7172C132.76 95.4134 133.019 95.0426 133.276 94.3817C133.616 93.4822 133.616 93.4487 133.503 83.5065C133.438 77.407 133.341 73.4972 133.244 73.4341C133.147 73.371 133.132 73.0632 133.179 72.7101C133.826 67.8988 133.954 66.3542 133.97 63.555L133.986 60.4974L133.406 59.0495C132.906 57.7949 132.813 57.3589 132.712 55.7512C132.568 53.2085 132.212 50.8196 131.746 49.2987C131.374 48.0914 129.713 44.7615 129.391 44.5643C129.335 44.5286 129.292 44.4769 129.267 44.4161C129.242 44.3553 129.236 44.2883 129.25 44.224C129.264 44.1597 129.297 44.1012 129.345 44.0563C129.393 44.0113 129.454 43.9821 129.519 43.9725C129.813 43.9751 130.102 44.0525 130.357 44.1974C131.002 44.5367 132.39 44.5682 134.632 44.3276C136.841 44.0691 137.679 43.7792 138.083 43.144C138.937 41.7927 137.97 39.0902 136.26 38.0151C134.889 37.1471 131.874 36.8315 130.583 37.4035C129.632 37.8395 129.488 38.3208 129.594 40.4769C129.691 41.9584 129.658 42.2306 129.448 42.3115C129.053 42.4555 128.353 42.4239 127.821 42.2306C127.352 42.0708 127.271 41.8933 125.626 36.9696C121.66 25.1928 121.304 24.3229 119.465 22.5218C118.723 21.7979 118.192 21.427 117.369 21.1055C115.886 20.5137 112.426 19.9948 106.403 19.4642C101.952 19.0697 100.823 19.0302 92.2917 18.9967C87.2082 18.9671 82.0812 19.0144 80.9186 19.0795ZM102.142 21.9754C109.561 22.2969 113.915 22.6362 115.866 23.0209C117.029 23.2635 118.352 23.8593 118.803 24.3406C119.425 25.0527 121.27 30.3789 123.85 39.031C124.076 39.7865 124.432 40.9464 124.641 41.5954C124.851 42.2444 124.964 42.85 124.898 42.9151C124.673 43.1716 121.496 43.5267 118.431 43.6549C114.255 43.8166 59.9697 43.8009 58.4868 43.6233C57.5357 43.5109 57.3004 43.4261 57.3004 43.2051C57.3004 42.9467 57.8501 40.8715 58.6074 38.2972C59.0029 36.9774 59.3647 35.8511 60.7191 31.7874C63.0424 24.7884 63.1867 24.5142 64.64 23.7902C65.767 23.2261 66.3325 23.1136 70.1229 22.7112C73.235 22.3739 76.363 22.1648 84.4756 21.7623C87.6926 21.6065 95.7716 21.6992 102.142 21.9754ZM62.3997 50.9853C66.4946 52.2419 67.4793 53.4629 67.8332 57.6923C67.9143 58.8009 67.9637 60.2331 67.9301 60.8781C67.8826 61.9237 67.8332 62.0834 67.3666 62.551C66.8999 63.0185 66.7734 63.0658 65.4309 63.1289C61.9628 63.2907 57.5456 62.5983 56.0924 61.681C54.819 60.8604 54.1902 58.8345 54.2871 55.8577C54.384 52.6877 54.9001 51.6264 56.7231 50.8215C57.4804 50.4842 57.7374 50.4507 59.335 50.5158C60.3703 50.529 61.3986 50.6871 62.3899 50.9853H62.3997ZM125.553 50.8728C127.166 51.5337 127.651 52.3701 127.973 54.976C128.146 56.5948 127.987 58.232 127.504 59.7873C127.198 60.7736 126.328 61.7599 125.49 62.1209C124.264 62.618 121.65 63.0047 118.812 63.1073C116.183 63.1881 115.894 63.1723 115.378 62.8981C114.377 62.3517 114.215 61.7875 114.328 59.4716C114.49 56.3016 114.668 55.1594 115.216 54.0488C116.007 52.4569 117.118 51.7645 120.216 50.9281C122.496 50.3027 124.189 50.3027 125.543 50.8728H125.553ZM111.669 56.489C112.539 56.9388 112.657 57.712 112.232 59.7715C111.894 61.3792 111.378 62.2807 110.103 63.5038C108.764 64.7919 108.169 65.2259 106.909 65.8532C104.976 66.8178 103.491 66.9954 94.2669 67.3485C86.2196 67.672 78.7851 67.0605 75.4832 65.8216C71.6789 64.3895 69.4368 61.5567 69.4209 58.1283C69.4209 56.921 69.4368 56.8737 69.8717 56.6803C70.4531 56.4219 77.1776 56.3253 96.169 56.2858C109.288 56.2483 111.255 56.2799 111.659 56.489H111.669ZM61.1304 65.0977C61.9529 65.1608 62.728 65.3068 62.8723 65.4192C63.1788 65.6756 63.1788 66.224 62.8565 66.6738C62.6469 66.9954 62.461 67.0269 61.3736 67.0269C59.3568 67.0111 57.1957 66.7547 56.5353 66.4351C56.0508 66.1925 55.9421 66.0643 55.9421 65.6618C55.9381 64.7584 56.4226 64.7031 61.1304 65.0977ZM126.108 65.145C126.478 65.4823 126.504 65.5632 126.35 65.8847C126.155 66.1459 125.893 66.3502 125.592 66.4765C124.948 66.7507 122.577 67.023 120.817 67.023C119.672 67.023 119.544 66.9914 119.303 66.6383C118.963 66.1057 119.077 65.5435 119.56 65.3028C119.882 65.1568 122.365 64.932 125.157 64.7879C125.507 64.7894 125.845 64.9161 126.108 65.145ZM120.125 76.0696C120.594 76.244 120.983 76.5818 121.221 77.0204C121.755 77.9041 122.156 79.6421 121.946 80.2378C121.673 81.0269 119.882 81.4766 114.399 82.1355C111.125 82.53 101.982 82.9403 94.5635 83.0212C82.9196 83.1337 70.2276 82.6267 64.6637 81.8139C62.2594 81.4608 61.2272 81.1215 60.5016 80.4331C59.8254 79.788 59.7918 79.2732 60.3731 78.0994C60.905 77.0539 61.4704 76.4424 62.115 76.184C62.3246 76.1051 72.2266 76.0242 85.0965 76.0242C97.5314 76.0084 109.48 75.9433 111.659 75.8782C116.77 75.7165 119.303 75.7796 120.125 76.0696Z" fill="#045286"/>
</svg>
