<svg width="23" height="16" viewBox="0 0 23 16" fill="none" xmlns="http://www.w3.org/2000/svg">
<path d="M3.03101 0.200195H20.256C21.881 0.200195 22.7 0.967195 22.7 2.5272V13.4732C22.7 15.0202 21.881 15.8002 20.256 15.8002H3.03101C1.40601 15.8002 0.587006 15.0202 0.587006 13.4732V2.5272C0.587006 0.967195 1.40601 0.200195 3.03101 0.200195ZM11.637 11.3802L20.399 4.1912C20.711 3.9312 20.958 3.3332 20.568 2.8002C20.191 2.2672 19.502 2.2542 19.047 2.5792L11.637 7.5972L4.24001 2.5792C3.78501 2.2542 3.09601 2.2672 2.71901 2.8002C2.32901 3.3332 2.57601 3.9312 2.88801 4.1912L11.637 11.3802Z" fill="white"/>
</svg>
