<svg id="Layer_1" data-name="Layer 1" xmlns="http://www.w3.org/2000/svg" viewBox="0 0 145 99"><defs><style>.cls-1{fill:#045286;}</style></defs><path class="cls-1" d="M13.39,19.85a4.93,4.93,0,0,0-1.51,1c-1.55,1.47-2.59,4.27-6.69,17.88L3.12,45.61V65.46l.75.76.75.75H15.2l.32-1.51a15.46,15.46,0,0,1,1-2.88,15.54,15.54,0,0,1,4.74-5.21,12.94,12.94,0,0,1,12.11-.29A16.8,16.8,0,0,1,38,61.63a14.83,14.83,0,0,1,1.66,4.74c0,.58.08.6,1.94.6h1.95V19.59l-14.71,0C20.75,19.62,13.8,19.75,13.39,19.85ZM35.93,31v8.11l-13.15.08-13.18,0V37.86c0-1.65,3.56-13.27,4.31-14.13a4,4,0,0,1,1-.76c.28-.11,5.13-.19,10.76-.16l10.25.05Zm-.65,12.56a.84.84,0,0,1,.16.79c-.13.34-.7.39-3.84.34-3.4-.08-3.71-.13-3.79-.58-.16-.78.41-.94,3.86-.94C34.27,43.15,35,43.23,35.28,43.54Z"/><path class="cls-1" d="M93.64,23.62c-6.07,1.1-8.79,2.25-16.11,6.73L75,31.89l-4.51.66c-13.49,2-16.47,3.14-17.61,6.86a11.6,11.6,0,0,0-.52,2.41A2.45,2.45,0,0,1,52,43.05a4.94,4.94,0,0,0-.39,2.27V47.1l1.22.55a10.94,10.94,0,0,0,2.8.69l1.58.1-.1-1.86A6.68,6.68,0,0,1,59,41.11a7.46,7.46,0,0,1,10.76-.29,7,7,0,0,1,2.08,5.58l-.06,2.07,14.89-.06c8.2,0,16.65-.1,18.78-.18l3.92-.18V46.19A7.43,7.43,0,0,1,114,39.12a9.37,9.37,0,0,1,5.76.08,7.62,7.62,0,0,1,4.46,6.73l.11,1.86,1.35-.11c2.3-.18,11.64-1.39,11.77-1.52a26.42,26.42,0,0,0,.11-6.23,10.16,10.16,0,0,1-.39-2.67,32,32,0,0,0-.47-3.87l-.31-1.5H134a20.46,20.46,0,0,1-3.53-.28,65.83,65.83,0,0,1-6.8-2.88c-8.19-3.8-9.9-4.4-13.43-4.85C106,23.33,96.1,23.18,93.64,23.62ZM96.75,26c0,.26-1.84,7.07-1.94,7.17s-12.12.55-16.21.55h-3l2.21-1.44c5.86-3.82,10.11-5.5,16-6.2A11.35,11.35,0,0,1,96.75,26Zm9.08.39a10.38,10.38,0,0,1,5.37,1.86c2,1.33,5.06,3.95,4.9,4.14s-13.59.81-17.38.83c-2.54,0-2.8-.05-2.69-.47.07-.23.46-1.83.85-3.53l.75-3.07h3.27C102.69,26.16,104.9,26.24,105.83,26.37Zm9.08,8.38c0,.34-.7.55-2,.55-1.09,0-1.61-.26-1.24-.63S114.91,34.49,114.91,34.75Zm-20.23.78c0,.32-1,.55-2.26.55-1,0-1.35-.21-.93-.6C91.75,35.22,94.68,35.27,94.68,35.53Z"/><path class="cls-1" d="M62.36,39.7a6.81,6.81,0,0,0-3.84,9.66,3.45,3.45,0,0,1,.36.73,29.63,29.63,0,0,1-4,.13h-4v2.09H45.4V64.88h3c2.62,0,3,0,3.16-.47a13.92,13.92,0,0,1,5.48-7,12.76,12.76,0,0,1,12.55,0,13.9,13.9,0,0,1,5.47,7c.16.44,1.17.47,16.24.47h16l1.07-2.2A12.25,12.25,0,0,1,116.75,56a15,15,0,0,1,7,.55c3,1.15,6.18,4.3,7,6.89a3.55,3.55,0,0,0,.6,1.23,14.61,14.61,0,0,0,3.91.21l3.61-.08.08-.86c.08-.84.1-.84,1.5-.84h1.4V53.89h-1.4c-1.35,0-1.42,0-1.5-.74l-.08-.7-2.65-.08-2.64-.08-.08-1-.08-1-5.6-.08-5.6-.05.59-1.23a6.88,6.88,0,0,0-4.15-9.37,5.47,5.47,0,0,0-4,0,6.93,6.93,0,0,0-3.94,9.56l.55,1H70.06l.49-1.13a6.75,6.75,0,0,0-8.19-9.39Z"/><path class="cls-1" d="M24.07,57a11.73,11.73,0,0,0-7,6.26c-.78,1.65-.83,1.93-.83,4.76s0,3.07.93,5a11.63,11.63,0,0,0,5.34,5.5c1.71.86,1.84.89,5,.89s3.29,0,5-.89a11.38,11.38,0,0,0,5.94-6.89,9.69,9.69,0,0,0,.44-4.13A8.57,8.57,0,0,0,38,63.26a11.36,11.36,0,0,0-10.56-6.73A13.17,13.17,0,0,0,24.07,57Zm6.15,5.24a6.92,6.92,0,0,1,3.66,6.65,6.67,6.67,0,0,1-5,5.44,6.37,6.37,0,0,1-7.5-8A6.29,6.29,0,0,1,30.22,62.24Z"/><path class="cls-1" d="M59.64,57.11a11.29,11.29,0,0,0-6.8,6.15,8.57,8.57,0,0,0-.91,4.24,9.69,9.69,0,0,0,.44,4.13,11.42,11.42,0,0,0,5.94,6.89c1.69.86,1.82.89,5,.89s3.3,0,5-.89A11.89,11.89,0,0,0,73.62,73c.93-1.91.95-2,.95-5s0-3.14-.83-4.79A11.43,11.43,0,0,0,59.64,57.11ZM66,62.24a6.71,6.71,0,0,1,3.37,4.08,6,6,0,0,1-.6,4.92,6.29,6.29,0,0,1-11,0,5.79,5.79,0,0,1-.6-4.87A6.3,6.3,0,0,1,66,62.24Z"/><path class="cls-1" d="M116.2,56.9a11.39,11.39,0,0,0-7.15,6.25,11.56,11.56,0,0,0,5.52,15.42c1.69.79,1.92.84,4.88.84s3.16,0,4.92-.89a11.62,11.62,0,0,0,3-18.74A10.13,10.13,0,0,0,120,56.61,12.06,12.06,0,0,0,116.2,56.9Zm5.87,5.36a6.43,6.43,0,0,1,2.82,9,6.29,6.29,0,0,1-10.16,1.13,5.72,5.72,0,0,1-1.64-4.32A6.25,6.25,0,0,1,122.07,62.26Z"/></svg>