<svg width="33" height="33" viewBox="0 0 33 33" fill="none" xmlns="http://www.w3.org/2000/svg">
<path d="M16 11.1627C13.0611 11.1627 10.6628 13.5611 10.6628 16.4999C10.6628 19.4388 13.0611 21.8371 16 21.8371C18.9389 21.8371 21.3372 19.4388 21.3372 16.4999C21.3372 13.5611 18.9389 11.1627 16 11.1627ZM32.0076 16.4999C32.0076 14.2898 32.0276 12.0996 31.9035 9.89347C31.7794 7.33098 31.1948 5.05676 29.321 3.18293C27.4432 1.3051 25.173 0.724531 22.6105 0.60041C20.4003 0.476289 18.2102 0.496308 16.004 0.496308C13.7938 0.496308 11.6037 0.476289 9.39756 0.60041C6.83506 0.724531 4.56085 1.3091 2.68702 3.18293C0.809186 5.06076 0.22862 7.33098 0.104499 9.89347C-0.0196221 12.1036 0.000397481 14.2938 0.000397481 16.4999C0.000397481 18.7061 -0.0196221 20.9002 0.104499 23.1064C0.22862 25.6689 0.81319 27.9431 2.68702 29.8169C4.56485 31.6947 6.83506 32.2753 9.39756 32.3994C11.6077 32.5235 13.7979 32.5035 16.004 32.5035C18.2142 32.5035 20.4043 32.5235 22.6105 32.3994C25.173 32.2753 27.4472 31.6907 29.321 29.8169C31.1988 27.9391 31.7794 25.6689 31.9035 23.1064C32.0316 20.9002 32.0076 18.7101 32.0076 16.4999ZM16 24.7119C11.4556 24.7119 7.78799 21.0444 7.78799 16.4999C7.78799 11.9555 11.4556 8.28791 16 8.28791C20.5444 8.28791 24.212 11.9555 24.212 16.4999C24.212 21.0444 20.5444 24.7119 16 24.7119ZM24.5483 9.86945C23.4873 9.86945 22.6305 9.01262 22.6305 7.95158C22.6305 6.89055 23.4873 6.03371 24.5483 6.03371C25.6094 6.03371 26.4662 6.89055 26.4662 7.95158C26.4665 8.20353 26.4171 8.45306 26.3209 8.68589C26.2246 8.91872 26.0833 9.13027 25.9052 9.30842C25.727 9.48658 25.5155 9.62784 25.2827 9.72411C25.0498 9.82038 24.8003 9.86977 24.5483 9.86945Z" fill="white"/>
</svg>
