<svg width="20" height="21" viewBox="0 0 20 21" fill="none" xmlns="http://www.w3.org/2000/svg">
<path d="M17.256 12.753C17.16 12.086 16.645 11.566 15.982 11.411C13.405 10.807 12.759 9.323 12.65 7.677C12.193 7.592 11.38 7.5 10 7.5C8.62 7.5 7.807 7.592 7.35 7.677C7.241 9.323 6.595 10.807 4.018 11.411C3.355 11.567 2.84 12.086 2.744 12.753L2.247 16.195C2.072 17.407 2.962 18.5 4.2 18.5H15.8C17.037 18.5 17.928 17.407 17.753 16.195L17.256 12.753ZM10 15.992C8.605 15.992 7.474 14.872 7.474 13.492C7.474 12.112 8.605 10.992 10 10.992C11.395 10.992 12.526 12.112 12.526 13.492C12.526 14.872 11.394 15.992 10 15.992ZM19.95 6.5C19.926 5 16.108 2.501 10 2.5C3.891 2.501 0.0729981 5 0.0499981 6.5C0.0269981 8 0.0709982 9.952 2.585 9.627C5.526 9.246 5.345 8.219 5.345 6.751C5.345 5.727 7.737 5.48 10 5.48C12.263 5.48 14.654 5.727 14.655 6.751C14.655 8.219 14.474 9.246 17.415 9.627C19.928 9.952 19.973 8 19.95 6.5Z" fill="white"/>
</svg>
