<svg width="122" height="122" viewBox="0 0 122 122" fill="none" xmlns="http://www.w3.org/2000/svg">
<path opacity="0.5" d="M33.1761 53.3475C32.0425 53.3475 30.9547 53.5203 29.8719 53.6779C30.2227 52.4986 30.5836 51.2989 31.1631 50.2212C31.7426 48.6556 32.6474 47.2983 33.5472 45.9309C34.2995 44.4517 35.6262 43.4502 36.6022 42.1845C37.624 40.9543 39.0168 40.1359 40.1199 39.1142C41.2027 38.0467 42.6209 37.5129 43.7494 36.7606C44.9287 36.0845 45.9556 35.3372 47.0536 34.9814L49.7935 33.8529L52.203 32.8515L49.7376 23L46.7028 23.732C45.7319 23.976 44.5475 24.2607 43.2004 24.6012C41.8228 24.8554 40.3537 25.5518 38.7169 26.1872C37.1004 26.9091 35.2297 27.3971 33.4912 28.5561C31.7426 29.6642 29.7245 30.5894 27.9453 32.0737C26.2221 33.6038 24.143 34.9306 22.6078 36.8775C20.9303 38.6973 19.2732 40.6087 17.9871 42.7843C16.4977 44.8583 15.4861 47.1357 14.4186 49.3876C13.4527 51.6395 12.675 53.9422 12.0396 56.1789C10.8348 60.6624 10.296 64.9223 10.0876 68.567C9.91474 72.2168 10.0164 75.2516 10.2299 77.4476C10.3062 78.4846 10.4485 79.4911 10.5502 80.1875L10.6772 81.0415L10.8094 81.011C11.7135 85.2344 13.7949 89.1155 16.8126 92.2054C19.8304 95.2953 23.6613 97.4677 27.8622 98.4714C32.063 99.475 36.4622 99.2688 40.5507 97.8766C44.6393 96.4845 48.2502 93.9633 50.9657 90.6047C53.6813 87.2461 55.3905 83.1873 55.8956 78.8978C56.4007 74.6084 55.6812 70.2636 53.8202 66.366C51.9591 62.4685 49.0327 59.1774 45.3794 56.8735C41.7261 54.5697 37.4952 53.3472 33.1761 53.3475ZM89.0927 53.3475C87.9592 53.3475 86.8713 53.5203 85.7886 53.6779C86.1393 52.4986 86.5002 51.2989 87.0797 50.2212C87.6592 48.6556 88.5641 47.2983 89.4638 45.9309C90.2161 44.4517 91.5429 43.4502 92.5189 42.1845C93.5406 40.9543 94.9335 40.1359 96.0366 39.1142C97.1193 38.0467 98.5376 37.5129 99.6661 36.7606C100.845 36.0845 101.872 35.3372 102.97 34.9814L105.71 33.8529L108.12 32.8515L105.654 23L102.619 23.732C101.649 23.976 100.464 24.2607 99.1171 24.6012C97.7395 24.8554 96.2704 25.5518 94.6336 26.1872C93.0221 26.9142 91.1464 27.3971 89.4079 28.5612C87.6592 29.6693 85.6412 30.5945 83.862 32.0788C82.1387 33.6089 80.0596 34.9357 78.5245 36.8775C76.847 38.6973 75.1898 40.6087 73.9037 42.7843C72.4143 44.8583 71.4027 47.1357 70.3352 49.3876C69.3694 51.6395 68.5917 53.9422 67.9562 56.1789C66.7515 60.6624 66.2127 64.9223 66.0042 68.567C65.8314 72.2168 65.9331 75.2516 66.1466 77.4476C66.2228 78.4846 66.3652 79.4911 66.4668 80.1875L66.5939 81.0415L66.7261 81.011C67.6302 85.2344 69.7115 89.1155 72.7293 92.2054C75.7471 95.2953 79.578 97.4677 83.7788 98.4714C87.9797 99.475 92.3788 99.2688 96.4674 97.8766C100.556 96.4845 104.167 93.9633 106.882 90.6047C109.598 87.2461 111.307 83.1873 111.812 78.8978C112.317 74.6084 111.598 70.2636 109.737 66.366C107.876 62.4685 104.949 59.1774 101.296 56.8735C97.6427 54.5697 93.4118 53.3472 89.0927 53.3475Z" fill="white"/>
</svg>
