<svg id="Layer_1" data-name="Layer 1" xmlns="http://www.w3.org/2000/svg" viewBox="0 0 145 99"><defs><style>.cls-1{fill:#045286;}</style></defs><path class="cls-1" d="M105.7,19.86c6.23.41,11.46,1.14,13.86,1.91a9.47,9.47,0,0,1,5,4.4,33.31,33.31,0,0,1,2.48,4.89,2.62,2.62,0,0,0,.3.76c.15.31.67,1.74,1.15,3.18.82,2.43,1,3.16,2.05,6.63.21.74.39,1.21.39,1.07s.08-.25.42-.13a2.57,2.57,0,0,0,1.54.07c.2-.08.23-.33.14-1.71-.12-2.11.06-2.7,1-3.11a7.64,7.64,0,0,1,5.52.6A4.63,4.63,0,0,1,141.42,41a2.87,2.87,0,0,1-.07,2.48c-.4.63-1.21.91-3.36,1.16s-3.53.2-4.16-.15a1,1,0,0,0-1.39.2c-.16.2,0,.63,1.05,2.66a18.49,18.49,0,0,1,2.35,9.43,2.76,2.76,0,0,0,.54,2,9.13,9.13,0,0,1,.76,1.65,80.83,80.83,0,0,1,0,10.54c-.08.77-.08,5.64,0,11.37.15,11.41.17,11.32-1,12.47l-.6.6h-3.54c-3.55,0-3.56,0-3.94-.38-.57-.57-.86-1.83-.86-3.6V89.87H124.6c-2.61,0-2.67,0-3.13-.38-1.09-.92.56-.87-25.73-.87H71.59l-1,.68-1,.66-2.64,0-2.62,0v1.82c0,2-.17,2.62-.84,3.32l-.39.38H56.3L55.71,95a2.57,2.57,0,0,1-.93-1.31c-.33-.88-.33-.91-.22-10.66.07-6,.16-9.81.25-9.87s.11-.36.07-.71a58.63,58.63,0,0,1-.77-9l0-3L54.66,59a8.28,8.28,0,0,0,.67-3.23,29.71,29.71,0,0,1,.94-6.33,22.63,22.63,0,0,1,2.29-4.64.24.24,0,0,0,.12-.14.31.31,0,0,0,0-.19.56.56,0,0,0-.09-.17.38.38,0,0,0-.17-.08,1.68,1.68,0,0,0-.82.22c-.63.33-2,.37-4.15.13s-3-.54-3.36-1.16c-.83-1.32.11-4,1.77-5a7.63,7.63,0,0,1,5.52-.6c.93.43,1.07.9,1,3-.09,1.45-.06,1.71.15,1.79a2.64,2.64,0,0,0,1.58-.08c.45-.15.53-.33,2.13-5.15,3.86-11.55,4.2-12.4,6-14.16a5.47,5.47,0,0,1,2-1.39c1.44-.58,4.81-1.09,10.66-1.61a121.72,121.72,0,0,1,13.72-.46C99.59,19.75,104.57,19.8,105.7,19.86ZM85.06,22.7a116.25,116.25,0,0,0-13.34,1A6.52,6.52,0,0,0,68.86,25c-.61.69-2.39,5.91-4.9,14.4-.22.74-.57,1.88-.77,2.51a3.11,3.11,0,0,0-.25,1.3c.21.25,3.3.59,6.28.72,4.06.16,56.85.14,58.29,0,.93-.11,1.15-.19,1.15-.41s-.53-2.29-1.27-4.81c-.38-1.29-.73-2.4-2-6.38-2.26-6.86-2.4-7.13-3.81-7.84-1.1-.55-1.65-.66-5.33-1.06-3-.33-6.07-.53-14-.93C99.11,22.34,91.26,22.43,85.06,22.7Zm38.65,28.44c-4,1.23-4.94,2.42-5.29,6.57-.07,1.09-.12,2.49-.09,3.12,0,1,.09,1.18.55,1.64s.58.51,1.88.57c3.37.16,7.67-.52,9.08-1.42,1.24-.8,1.85-2.79,1.76-5.71-.1-3.11-.6-4.15-2.37-4.93a4.23,4.23,0,0,0-2.54-.3,10.29,10.29,0,0,0-3,.46ZM62.3,51c-1.57.64-2,1.46-2.35,4a11.73,11.73,0,0,0,.45,4.71,4,4,0,0,0,2,2.29,22.74,22.74,0,0,0,6.49,1c2.56.08,2.84.06,3.34-.21,1-.53,1.13-1.09,1-3.36-.16-3.1-.34-4.22-.87-5.31-.77-1.56-1.85-2.24-4.86-3.06a7.79,7.79,0,0,0-5.18,0Zm13.5,5.5c-.84.44-1,1.2-.55,3.22a6.23,6.23,0,0,0,2.07,3.66,10.69,10.69,0,0,0,3.11,2.3c1.88.94,3.32,1.12,12.29,1.46,7.83.32,15.06-.28,18.27-1.49,3.69-1.41,5.87-4.18,5.89-7.54,0-1.19,0-1.23-.44-1.42s-7.1-.35-25.56-.39c-12.76,0-14.68,0-15.07.2ZM124.94,65a5.43,5.43,0,0,0-1.69.31.93.93,0,0,0,0,1.23c.21.32.39.35,1.45.35a16,16,0,0,0,4.7-.58c.47-.24.58-.36.58-.76C130,64.64,129.52,64.58,124.94,65ZM61.76,65c-.36.33-.38.41-.23.72a1.72,1.72,0,0,0,.73.58,18.16,18.16,0,0,0,4.65.54c1.11,0,1.23,0,1.47-.38a.86.86,0,0,0-.25-1.31,40.67,40.67,0,0,0-5.44-.5A1.4,1.4,0,0,0,61.76,65Zm5.82,10.7a2,2,0,0,0-1.07.94,5.47,5.47,0,0,0-.7,3.15c.26.77,2,1.21,7.34,1.86,3.18.39,12.07.79,19.28.87,11.32.11,23.67-.39,29.08-1.19,2.33-.34,3.34-.67,4-1.35s.69-1.14.13-2.29a3.59,3.59,0,0,0-1.7-1.87c-.2-.08-9.83-.16-22.34-.16-12.09,0-23.71-.08-25.83-.14C70.84,75.38,68.38,75.44,67.58,75.72Z"/><path class="cls-1" d="M17.74,14.77a1.58,1.58,0,0,1-1.58-1.58V7.64a1.58,1.58,0,0,1,3.16,0v5.55A1.58,1.58,0,0,1,17.74,14.77Z"/><path class="cls-1" d="M25.26,14.77a1.58,1.58,0,0,1-1.58-1.58V7.64a1.58,1.58,0,1,1,3.16,0v5.55A1.58,1.58,0,0,1,25.26,14.77Z"/><path class="cls-1" d="M32.78,14.77a1.58,1.58,0,0,1-1.58-1.58V7.64a1.58,1.58,0,1,1,3.16,0v5.55A1.58,1.58,0,0,1,32.78,14.77Z"/><path class="cls-1" d="M34.36,9.62H16.16A4.36,4.36,0,0,0,11.8,14V35a4.36,4.36,0,0,0,4.36,4.35H27.84l.35-2A4.41,4.41,0,0,1,29.39,35l9.33-9.31V14a4.36,4.36,0,0,0-4.36-4.36Zm-9.89,7.52a1.59,1.59,0,0,1,0,3.17H18.14a1.59,1.59,0,1,1,0-3.17Zm4.75,9.5H18.14a1.58,1.58,0,1,1,0-3.16H29.22a1.58,1.58,0,1,1,0,3.16Z"/><path class="cls-1" d="M31.64,44.06a1.16,1.16,0,0,1-.84-.35,1.18,1.18,0,0,1-.33-1l.84-4.76a1.24,1.24,0,0,1,.33-.64L43.39,25.52c1.45-1.45,2.87-1.06,3.64-.28l2,2a2.78,2.78,0,0,1,0,3.92L37.24,42.87a1.17,1.17,0,0,1-.64.33L31.84,44l-.2,0Zm4.76-2h0Z"/></svg>