<svg width="109" height="89" viewBox="0 0 109 89" fill="none" xmlns="http://www.w3.org/2000/svg">
<path d="M43.0128 0.370064C35.7278 0.851143 29.5988 1.70229 26.7912 2.60894C24.4791 3.36757 22.6441 4.97734 20.8825 7.77131C19.9099 9.30707 17.9832 13.1372 17.9832 13.5073C17.9832 13.6183 17.8364 14.0069 17.6345 14.3954C17.451 14.7655 16.8454 16.4493 16.2766 18.1331C15.3224 20.9825 15.0655 21.8337 13.8727 25.9044C13.6342 26.774 13.414 27.3291 13.414 27.1626C13.3956 26.885 13.3222 26.8665 12.9185 27.0146C12.3864 27.2181 11.5422 27.2551 11.1202 27.0886C10.8816 26.9961 10.8449 26.7 10.955 25.0902C11.1018 22.6108 10.8816 21.9262 9.83568 21.4451C8.36767 20.779 4.95454 21.1491 3.37642 22.1482C2.36716 22.7958 1.59645 23.869 1.2111 25.1457C0.825746 26.4965 0.844096 27.3106 1.30285 28.0507C1.7616 28.7909 2.71581 29.1239 5.22979 29.42C7.81716 29.716 9.35858 29.6605 10.0926 29.2534C10.7715 28.9019 11.2853 28.9574 11.7257 29.4755C11.9093 29.716 11.7257 30.2156 10.4963 32.6025C8.47777 36.5252 7.63366 39.9112 7.74376 43.6674C7.78046 44.759 7.72541 44.9811 7.11985 46.0173C6.7345 46.6649 6.34915 47.5345 6.2207 47.9601C5.96379 48.9037 5.92709 57.8778 6.184 60.3202C6.27575 61.2268 6.27575 66.9443 6.184 73.6609C6.00049 87.0387 5.98214 86.9462 7.34006 88.2969L8.03736 89H12.1845C16.3316 89 16.35 89 16.7904 88.5559C17.451 87.8898 17.7997 86.4096 17.7997 84.3372V82.5239H20.9008C23.947 82.5239 24.0204 82.5239 24.5525 82.0613C25.837 80.9881 23.9103 81.0437 54.6652 81.0437H82.9244L84.0805 81.8393L85.2365 82.6164L88.3194 82.5609L91.3838 82.5054V84.6518C91.3838 86.9647 91.5857 87.7233 92.3748 88.5374L92.8335 89H96.8338H100.816L101.513 88.5189C102.009 88.1674 102.302 87.7418 102.596 86.9832C102.981 85.947 102.981 85.91 102.853 74.4751C102.779 67.4624 102.669 62.9661 102.559 62.8921C102.467 62.8366 102.431 62.4665 102.486 62.0595C103.22 56.527 103.367 54.7507 103.385 51.5312L103.403 48.0156L102.743 46.3503C102.174 44.9071 102.064 44.4075 101.954 42.5572C101.788 39.6337 101.385 36.8767 100.853 35.1374C100.43 33.7497 98.5404 29.9195 98.1734 29.6975C97.8798 29.5125 97.9716 29.0869 98.3202 29.0129C98.4854 28.9759 98.9258 29.0869 99.2744 29.2719C100.008 29.6605 101.587 29.6975 104.137 29.42C106.651 29.1239 107.605 28.7909 108.064 28.0507C109.037 26.4965 107.936 23.3879 105.991 22.1482C104.431 21.1491 100.999 20.779 99.5313 21.4451C98.4487 21.9447 98.2835 22.4998 98.412 24.9792C98.5221 26.6815 98.4854 26.9961 98.2468 27.0886C97.8064 27.2551 96.999 27.2181 96.3934 26.9961C95.8613 26.811 95.7695 26.6075 93.8978 20.9455C89.3837 7.40125 88.98 6.40208 86.8881 4.32973C86.0439 3.49709 85.4384 3.07152 84.5025 2.70145C82.8143 2.01684 78.8874 1.42474 72.0244 0.81414C66.9598 0.351562 65.6753 0.314552 55.968 0.27755C50.1694 0.24054 44.334 0.296051 43.0128 0.370064ZM67.1616 3.70062C75.6027 4.07069 80.5572 4.45925 82.7776 4.90333C84.0988 5.18088 85.6035 5.86549 86.1173 6.42059C86.833 7.23472 88.9249 13.3593 91.8609 23.3139C92.1179 24.1836 92.5216 25.5158 92.7601 26.2744C92.9987 27.0331 93.1271 27.7177 93.0537 27.7917C92.7968 28.0877 89.1818 28.4948 85.6953 28.6428C80.9426 28.8279 19.1759 28.8094 17.4877 28.6058C16.405 28.4763 16.1481 28.3838 16.1481 28.1247C16.1481 27.8287 16.772 25.4418 17.6345 22.4813C18.0749 20.964 18.497 19.6688 20.0384 14.9875C22.6808 6.93867 22.846 6.62411 24.4975 5.79147C25.782 5.14387 26.4242 5.01434 30.7365 4.55177C34.2781 4.1632 37.838 3.92266 47.0682 3.46008C50.7199 3.27505 59.9133 3.38607 67.1616 3.70062ZM21.9284 37.0617C26.5894 38.505 27.7087 39.9112 28.1125 44.7775C28.2042 46.0543 28.2593 47.701 28.2226 48.4412C28.1675 49.6439 28.1125 49.8289 27.5803 50.3655C27.0298 50.9206 26.9013 50.9576 25.3783 51.0316C21.433 51.2166 16.405 50.421 14.7535 49.3663C13.3039 48.4227 12.5882 46.0913 12.6983 42.6682C12.8084 39.0231 13.3956 37.8019 15.4692 36.8767C16.3316 36.4882 16.6252 36.4511 18.4419 36.5252C19.8732 36.5807 20.8825 36.7287 21.9284 37.0617ZM93.7877 36.9322C95.6227 37.6909 96.1732 38.653 96.5402 41.6505C96.7421 43.4453 96.5586 45.4067 96.0081 47.183C95.6594 48.3116 94.6685 49.4588 93.7143 49.8659C92.3197 50.4395 89.347 50.8836 86.1173 50.9946C83.1263 51.0871 82.796 51.0686 82.2088 50.7541C81.071 50.1249 80.8875 49.4773 81.016 46.8129C81.1995 43.1678 81.4014 41.8541 82.0253 40.5773C82.9244 38.7455 84.1906 37.9499 87.7138 36.9877C90.3195 36.2846 92.2463 36.2661 93.7877 36.9322ZM77.9882 43.3898C78.9791 43.9079 79.1259 44.7961 78.6305 47.1644C78.2451 49.0148 77.6579 50.0509 76.2083 51.4572C74.6852 52.9374 74.0062 53.437 72.5749 54.1586C70.3729 55.2688 68.6847 55.4724 58.1884 55.8794C49.0317 56.2495 40.5722 55.5464 36.8104 54.1216C32.4798 52.4748 29.9291 49.2183 29.9108 45.2771C29.9108 43.8894 29.9291 43.8339 30.4246 43.6119C31.0852 43.3158 38.7372 43.2048 60.3354 43.1493C75.2907 43.1123 77.5295 43.1493 77.9882 43.3898ZM20.4971 53.289C21.433 53.363 22.3138 53.5295 22.479 53.659C22.8276 53.9551 22.8276 54.5842 22.4606 55.1023C22.222 55.4724 22.0202 55.5094 20.7724 55.5094C18.4786 55.4909 16.0197 55.1948 15.2673 54.8247C14.7168 54.5472 14.5884 54.3992 14.5884 53.9366C14.5884 52.9004 15.1389 52.8264 20.4971 53.289ZM94.43 53.3445C94.852 53.7331 94.8887 53.8256 94.7052 54.1956C94.5768 54.4177 94.1914 54.7322 93.8428 54.8802C93.1088 55.1948 90.4113 55.5094 88.4111 55.5094C87.1083 55.5094 86.9615 55.4724 86.6862 55.0653C86.3008 54.4547 86.4293 53.8071 86.9798 53.5295C87.3468 53.363 90.1727 53.104 93.3473 52.9374C93.7327 52.9374 94.0997 53.0669 94.43 53.3445ZM87.6221 65.9081C88.1542 66.1116 88.5029 66.4077 88.8699 66.9998C89.4754 68.0175 89.9342 70.0158 89.6956 70.7004C89.3837 71.6071 87.3468 72.1252 81.1077 72.8838C77.3827 73.3464 66.9781 73.8089 58.537 73.9015C45.2882 74.031 30.8466 73.4389 24.5158 72.5137C21.7816 72.1067 20.6072 71.7181 19.7815 70.9225C19.0108 70.1823 18.9741 69.5902 19.6347 68.2395C20.2402 67.0368 20.8825 66.3337 21.6165 66.0376C21.855 65.9451 33.1221 65.8526 47.7655 65.8526C61.9135 65.8341 75.5109 65.7601 77.9882 65.6861C83.8052 65.501 86.6862 65.5751 87.6221 65.9081Z" fill="#045286"/>
</svg>
