<svg width="100" height="100" viewBox="0 0 100 100" fill="none" xmlns="http://www.w3.org/2000/svg">
<path d="M18.6422 0.224823C16.5452 0.534416 14.7296 1.43504 13.2659 2.91262C12.1541 4.01025 11.4081 5.24861 10.9015 6.76841C10.5918 7.72533 10.5215 8.24599 10.4511 10.2161L10.3667 12.538L9.88814 13.2416C8.94518 14.6066 8.24148 15.3243 6.84814 16.3797C3.65333 18.7861 1.57036 21.6146 0.697772 24.7809C0.402217 25.8363 0.388142 26.2444 0.331846 31.6763C0.27555 37.8399 0.303698 38.1495 0.96518 38.9235C2.04888 40.2181 3.85036 40.3307 5.14518 39.1908C6.20074 38.2621 6.21481 38.1354 6.21481 31.831C6.21481 28.5663 6.28518 26.0755 6.36962 25.6956C6.63703 24.5135 7.34074 23.2751 8.31185 22.2901C8.83259 21.7553 9.35333 21.3332 9.48 21.3332C9.59259 21.3332 9.86 21.4598 10.0711 21.6287L10.437 21.9101L10.4652 55.2895L10.5074 88.6688L10.9015 89.4709C11.3518 90.3856 12.1541 91.1736 13.097 91.6099C13.66 91.8632 14.0541 91.9054 16.1089 91.9476L18.4593 92.0039V94.9028C18.4593 97.4217 18.5015 97.8861 18.7267 98.3786C19.3178 99.6873 19.8526 99.8562 23.343 99.8562C25.8622 99.8562 26.1718 99.8281 26.7207 99.5607C27.1289 99.3637 27.4526 99.0682 27.6778 98.6741C28.0296 98.0831 28.0296 98.0127 28.0296 95.0294V91.9758H49.76H71.4904L71.5326 95.0435L71.5889 98.1253L71.983 98.7164C72.6585 99.7436 73.0948 99.8562 76.3741 99.8562C79.6533 99.8562 80.0896 99.7436 80.7652 98.7164L81.1593 98.1112L81.2015 95.0576L81.2578 92.0039L83.2422 91.9476C84.903 91.9054 85.3533 91.8491 85.8882 91.5958C86.817 91.1736 87.6333 90.3856 88.0837 89.4709L88.4778 88.6688L88.5482 56.1619L88.6185 23.6551L89.0689 22.7122C89.5333 21.7131 90.04 21.2487 90.5045 21.4035C90.6593 21.4457 91.1659 21.8961 91.6304 22.3886C92.503 23.3314 93.2067 24.612 93.46 25.6956C93.5444 26.0755 93.6148 28.5522 93.6148 31.8029C93.6148 37.6992 93.643 37.9947 94.3467 38.8531C95.74 40.5277 98.2733 40.2603 99.2726 38.3183C99.54 37.7977 99.54 37.5162 99.4978 31.8451C99.4415 26.2303 99.4274 25.8503 99.1319 24.7809C98.2452 21.6146 96.1763 18.7861 92.9815 16.3797C91.18 15.0288 90.2652 13.9453 89.083 11.7641C88.6185 10.9197 88.5763 10.7368 88.5059 9.30141C88.3933 6.95135 87.7459 5.23454 86.3526 3.54587C85.1704 2.1105 83.58 1.08323 81.6378 0.478127L80.5963 0.154465L49.9852 0.140388C33.1526 0.12632 19.0504 0.168533 18.6422 0.224823ZM66.7333 3.98211C67.3526 4.34799 67.437 4.69979 67.437 6.97949V9.09033L67.0289 9.54064L66.6207 10.005L49.8867 10.0472C37.5156 10.0754 33.0681 10.0332 32.7726 9.92059C32.0407 9.611 31.9704 9.37177 31.9704 6.93728C31.9704 5.68485 32.0267 4.58722 32.1111 4.4465C32.4911 3.72881 31.7874 3.75696 49.6756 3.74288C64.9741 3.74288 66.3674 3.75696 66.7333 3.98211ZM71.0259 14.1423C74.657 14.3111 76.8104 14.5644 78.9778 15.0851C82.9467 16.0139 84.6215 16.9567 85.5363 18.7579L85.9445 19.5741V36.6719V53.7697L85.6208 54.5577C84.8607 56.4293 83.2422 57.9772 81.1874 58.7653C79.02 59.6096 73.1793 60.9606 69.0556 61.5657C67.1978 61.833 65.4104 62.0441 60.6815 62.4944C59.5556 62.607 57.3459 62.8322 55.7556 63.001C51.7585 63.4373 47.0859 63.4373 43.0889 63.001C41.4985 62.8322 39.2889 62.607 38.163 62.4944C33.04 62.0019 30.4785 61.6923 28.5504 61.3687C24.2015 60.6369 19.2333 59.4408 17.46 58.6809C16.2496 58.1883 14.8844 57.1892 14.3074 56.4012C13.3363 55.0643 13.3926 56.4012 13.3926 36.4327V18.3639L14.0259 17.6885C14.7578 16.9004 15.8133 16.3094 17.4037 15.7887C20.5704 14.7614 22.9348 14.4519 29.8593 14.1563C34.6585 13.9453 38.1207 13.9171 51.6741 13.9453C60.8644 13.9593 69.1822 14.0438 71.0259 14.1423ZM18.0933 67.1383C21.8652 67.9122 26.6926 70.4452 29.4089 73.0768C30.38 74.0055 30.577 74.287 30.76 74.9343C31.1963 76.4119 30.957 77.608 30.1267 78.2272C29.803 78.4664 29.4652 78.5086 27.4526 78.5368C21.2178 78.6494 17.3193 77.9739 14.8 76.3556C13.3785 75.4268 13.3785 75.455 13.4207 71.374L13.463 67.87L13.8289 67.6027C14.6733 66.9694 16.3622 66.7865 18.0933 67.1383ZM84.7904 67.2227C85.0859 67.3212 85.48 67.5464 85.677 67.7293L86.0289 68.053L85.9867 71.571L85.9445 75.075L85.3956 75.6379C84.3822 76.6792 82.1022 77.6643 79.6956 78.1146C77.0356 78.6071 70.1533 78.7197 69.3089 78.2835C68.7319 77.9739 68.4222 77.2703 68.4222 76.2571C68.4222 74.5684 68.9007 73.8085 71.04 72.1058C73.9111 69.812 77.7815 67.9122 81.1593 67.1383C82.1163 66.9131 83.9741 66.9553 84.7904 67.2227ZM67.0289 82.2518L67.437 82.6599V84.9115V87.1631L67.0289 87.5993L66.6207 88.0355H49.7037H32.7867L32.3785 87.6274L31.9704 87.2193V84.9678C31.9704 82.7444 31.9704 82.7022 32.3363 82.28L32.7022 81.8438H49.6615H66.6207L67.0289 82.2518Z" fill="#045286"/>
</svg>
