<svg width="39" height="33" viewBox="0 0 39 33" fill="none" xmlns="http://www.w3.org/2000/svg">
<path d="M38.8901 4.43427C37.4637 5.06636 35.9313 5.49344 34.3203 5.68648C35.9825 4.69188 37.2261 3.12649 37.819 1.2824C36.2573 2.21001 34.5481 2.86294 32.7658 3.21282C31.5672 1.93304 29.9796 1.08479 28.2495 0.799751C26.5194 0.514712 24.7436 0.808835 23.1978 1.63646C21.652 2.46408 20.4227 3.77889 19.7007 5.37677C18.9787 6.97464 18.8045 8.76618 19.205 10.4732C16.0406 10.3144 12.945 9.49188 10.1191 8.0592C7.29317 6.62651 4.80006 4.61563 2.80158 2.15707C2.11825 3.33582 1.72533 4.70248 1.72533 6.15798C1.72457 7.46827 2.04724 8.75848 2.66471 9.91415C3.28218 11.0698 4.17536 12.0552 5.265 12.7829C4.00131 12.7427 2.76549 12.4012 1.66042 11.7869V11.8894C1.66029 13.7272 2.29597 15.5083 3.4596 16.9307C4.62324 18.3531 6.24314 19.3291 8.04446 19.6931C6.87217 20.0104 5.64312 20.0571 4.45012 19.8298C4.95835 21.411 5.94833 22.7938 7.28146 23.7844C8.6146 24.7751 10.2241 25.3241 11.8848 25.3545C9.06576 27.5675 5.58427 28.7679 2.00037 28.7626C1.36553 28.7628 0.731213 28.7257 0.100708 28.6516C3.73856 30.9906 7.97329 32.232 12.2982 32.2271C26.9386 32.2271 34.9422 20.1014 34.9422 9.5849C34.9422 9.24323 34.9336 8.89815 34.9183 8.55648C36.475 7.43065 37.8188 6.03651 38.8867 4.4394L38.8901 4.43427Z" fill="white"/>
</svg>
