<svg width="17" height="17" viewBox="0 0 17 17" fill="none" xmlns="http://www.w3.org/2000/svg">
<path d="M15.8 4.19988C13.4 0.499878 8.49999 -0.600122 4.69999 1.69988C0.999993 3.99988 -0.200007 8.99988 2.19999 12.6999L2.39999 12.9999L1.59999 15.9999L4.59999 15.1999L4.89999 15.3999C6.19999 16.0999 7.59999 16.4999 8.99999 16.4999C10.5 16.4999 12 16.0999 13.3 15.2999C17 12.8999 18.1 7.99988 15.8 4.19988ZM13.7 11.8999C13.3 12.4999 12.8 12.8999 12.1 12.9999C11.7 12.9999 11.2 13.1999 9.19999 12.3999C7.49999 11.5999 6.09999 10.2999 5.09999 8.79988C4.49999 8.09988 4.19999 7.19988 4.09999 6.29988C4.09999 5.49988 4.39999 4.79988 4.89999 4.29988C5.09999 4.09988 5.29999 3.99988 5.49999 3.99988H5.99999C6.19999 3.99988 6.39999 3.99988 6.49999 4.39988C6.69999 4.89988 7.19999 6.09988 7.19999 6.19988C7.29999 6.29988 7.29999 6.49988 7.19999 6.59988C7.29999 6.79988 7.19999 6.99988 7.09999 7.09988C6.99999 7.19988 6.89999 7.39988 6.79999 7.49988C6.59999 7.59988 6.49999 7.79988 6.59999 7.99988C6.99999 8.59988 7.49999 9.19988 7.99999 9.69988C8.59999 10.1999 9.19999 10.5999 9.89999 10.8999C10.1 10.9999 10.3 10.9999 10.4 10.7999C10.5 10.5999 11 10.0999 11.2 9.89988C11.4 9.69988 11.5 9.69988 11.7 9.79988L13.3 10.5999C13.5 10.6999 13.7 10.7999 13.8 10.8999C13.9 11.1999 13.9 11.5999 13.7 11.8999Z" fill="white"/>
</svg>
